<?xml version="1.0" encoding="UTF-8"?>
<svg xmlns="http://www.w3.org/2000/svg" viewBox="0 0 805.91 802.97">
  <g id="Sky_Dusk_Dawn" data-name="Sky Dusk/Dawn">
    <rect x="3.39" y=".3" width="800.61" height="800.61" fill="#ca3c8e"/>
  </g>
  <g id="Sky_Day" data-name="Sky Day">
    <rect x="4" y=".3" width="800" height="800.61" fill="#0d8dce"/>
  </g>
  <g id="Sky_Night" data-name="Sky Night">
    <rect x="3.71" width="797.62" height="801.01" fill="#0f0c3d"/>
  </g>
  <g id="Cloud_2" data-name="Cloud 2">
    <path d="M703.4,201.05c-.19-5.04-1.13-10.09-2.93-15.02-10.18-27.88-43.44-41.35-74.28-30.09-21.2,7.74-35.74,25.15-39.45,44.34-9.05.39-18.28,2.16-27.36,5.48-10.65,3.89-20.1,9.53-28.08,16.39-22.83-14.49-53.4-18.27-82.57-7.62-9.21,3.36-17.58,7.92-25,13.39-.19-5.65-1.24-11.33-3.26-16.86-11.28-30.89-48.12-45.81-82.29-33.33-6.43,2.35-12.31,5.5-17.54,9.28-21.96-12.31-48.94-17.04-76.2-12.25-35.14-32.14-89.78-43.32-141.5-24.43C31.59,176.38-7.16,249.8,16.4,314.31c23.56,64.51,100.5,95.68,171.86,69.62,8.19-2.99,15.95-6.62,23.24-10.77,6.88,2.51,14.08,4.38,21.5,5.53-3.27,20.58-1.59,41.86,5.88,62.31,25.56,69.97,109.02,103.78,186.42,75.52,19.7-7.19,37.1-17.72,51.68-30.56,27.39,25.16,70.06,33.95,110.46,19.2,45.38-16.57,73.83-57.72,72.81-99.62,3.37-.8,6.73-1.79,10.08-3.01,15.26-5.57,27.99-14.81,37.4-26.13,7.85-.95,15.76-2.83,23.58-5.68,49.89-18.22,76.98-69.55,60.5-114.65-12.99-35.58-49.21-56.63-88.41-55Z" fill="#fb676f"/>
  </g>
  <g id="Cloud_1" data-name="Cloud 1">
    <path d="M763.04,324.4c1.9-4.94,2.96-10.34,2.96-15.99,0-23.69-18.35-42.89-40.98-42.89-17.8,0-32.95,11.88-38.6,28.48-.79-.02-1.58-.03-2.38-.03-44.41,0-83.28,24.86-104.58,62.01-11.22-7.19-24.42-11.35-38.54-11.35-16.81,0-32.29,5.88-44.71,15.77-4.75-44.38-40.72-78.88-84.4-78.88s-80.25,35.07-84.52,79.98c-14.58,2.65-28.2,8.22-40.31,16.1-5.99-47.21-44.6-83.64-91.35-83.64-35.79,0-66.82,21.35-82.08,52.55-5.72-1.23-11.65-1.88-17.72-1.88-48.32,0-87.49,40.99-87.49,91.56s39.17,91.56,87.49,91.56c8.36,0,16.45-1.23,24.11-3.52-8.32,15.65-13.07,33.67-13.07,52.86,0,60.14,46.59,108.89,104.05,108.89,52.62,0,96.11-40.88,103.07-93.95,10.39,3.29,21.41,5.06,32.83,5.06,23.19,0,44.74-7.29,62.7-19.79,16.43,25.75,44.45,42.71,76.26,42.71,16.17,0,31.36-4.39,44.55-12.08,13.37,22.31,37.06,37.15,64.08,37.15,41.75,0,75.59-35.42,75.59-79.11,0-6.19-.7-12.2-1.99-17.98,5.24.72,10.58,1.1,16.01,1.1,67.32,0,121.89-57.11,121.89-127.56,0-38.9-16.64-73.72-42.88-97.12ZM580.15,488.27c-.64.13-1.27.26-1.9.4.52-.32,1.04-.64,1.56-.98.11.19.23.38.34.57Z" fill="#fb8c74"/>
  </g>
  <g id="Skyline">
    <g id="Layer_1" data-name="Layer 1">
      <g>
        <polygon points="2.14 581.11 15.23 581.21 23.93 589.1 62.11 589.1 67.28 624.57 74.14 622.64 77.4 581.11 87.23 595.74 109.19 586.63 129.84 585.36 141.78 580.11 201.49 574.95 265.6 618.6 277.06 620.4 277.06 586.63 281.51 586.63 281.51 600.81 283.61 600.72 283.61 620.4 375.16 624.02 392.59 590.14 392.59 581.21 403.07 581.21 406.07 594.09 485.44 606.13 537.86 641.78 537.86 592.59 544.96 594.21 546.33 606.13 564.77 598.01 585.71 592.04 605.99 598.27 614.04 598.01 617.16 593.13 630.83 599.47 638.05 594.21 650.17 602.01 737.67 614.99 740.72 588.24 774.02 589.32 774.02 596.18 777.06 586.58 782.28 580.02 799.33 580.02 804 580.02 804 793.74 2.14 793.74 2.14 581.11" fill="#fb676f"/>
        <path d="M2.14,605.95h17.45v-32.86h8.74v10.1h38.99v38.72h22.11v-30.05h15.8v11.43h12.46v13.63h164.83v-38.43h4.87v39.39h9.04v-40.78h19.72v-52.68h65.82v92.96h10.73v-6.02h10.36v8.43h74.43s.03-55.62.44-57.43,6.4-9,6.4-9h12.98v47.18h16.35v12.99h14.34s26.53-1.24,26.98,0,0,21.86,0,21.86h50.45s-1.67-27.99,0-29.45,19.94-1.29,21.22,0c1.28,1.29,0,21.63,0,21.63h119.52v-31.39h27.85v40.12h29.98v164.97H2.14s.16-195.33,0-195.33Z" fill="#ca3c8e"/>
        <polygon points="2.14 658.13 17.08 658.13 17.08 640.17 19.6 637.32 19.6 574.65 28.63 574.65 28.63 566.76 42.81 550.88 42.81 542.53 43.24 542.53 43.24 550.9 58.53 566.11 58.53 574.06 72.18 574.06 72.18 615.85 79.13 615.85 79.13 606.77 84.13 606.77 84.13 586.48 100.33 586.48 100.33 606.08 114.51 606.08 114.51 655.96 120.6 655.96 120.6 624.23 128.52 609.71 128.52 595.7 140.63 595.7 140.63 579.24 199.6 579.24 199.6 520.45 213.13 520.45 232.82 500.86 239.64 500.86 259.81 520.93 273.79 520.93 273.79 612.26 290.15 612.26 290.15 587.66 297.79 587.66 297.79 569.24 310.88 569.24 310.88 536.71 315.93 536.71 315.93 546.33 318.73 546.33 318.73 357.27 324.6 351.42 324.6 339.46 328.38 339.46 328.38 332.97 332.7 332.91 335.48 329.58 338 302.4 340.01 285.77 341.82 252.64 342.55 285.75 344.25 302.48 347.47 329.25 350.74 332.49 353.43 332.49 353.43 339.7 357.65 339.7 357.65 352.1 362.54 356.97 362.54 486.75 367.61 486.75 367.61 492.81 371.3 492.81 375.24 488.01 386.23 488.01 389.43 473.84 389.43 624.52 401.44 624.52 401.44 658.13 407.96 658.13 407.96 645.04 410.28 645.04 410.28 478.17 409.07 420.72 414.52 415.29 436.35 415.29 436.39 340.53 438.5 340.53 438.5 415.22 466.7 415.22 472.89 421.38 472.89 593.08 484.35 593.08 484.35 570.32 491.17 570.32 491.17 555.14 494.3 552.02 494.3 521.22 498.53 509.61 503.81 521.22 503.81 732.61 518.65 732.61 518.65 636.45 523.47 584.75 523.47 575.68 532.41 575.68 532.41 571.31 543.26 571.31 543.26 620.46 573.81 620.46 573.81 539.96 606.31 539.96 606.31 572.49 609.8 572.49 609.8 714.5 617.45 714.5 617.45 665.72 624.7 665.72 624.7 647.29 632.72 647.29 632.72 623.36 640.36 623.36 640.36 494.51 653.27 494.51 653.27 456.5 655.06 456.5 655.06 494.43 664.37 494.43 683.58 494.43 683.58 456.41 686.18 456.41 686.18 494.51 700.57 494.51 700.57 458.06 701.47 458.06 701.47 494.51 708.02 494.51 708.02 522.33 711.07 525.37 711.07 584.41 737.46 584.41 737.46 605.01 766.91 605.01 766.91 625.6 775.22 625.6 775.22 619.94 779.45 619.94 779.45 584.41 785.45 584.41 785.45 551.89 798.78 551.89 798.78 558.39 804 558.39 804 801.22 2.14 801.28 2.14 658.13" fill="#391150"/>
        <polygon points="0 802.97 0 645.79 9.95 645.79 9.83 655 17.12 655 17.12 669.75 51.96 669.75 51.96 639.96 78.54 639.96 78.54 666.87 84.02 666.87 82.93 720.42 85.71 720.42 85.71 706.38 105.67 705.35 105.67 694.08 124.46 694.08 124.46 758.53 125.45 758.53 125.45 733.04 129.08 733.04 129.08 642.55 137.53 642.55 137.53 636.35 146.18 636.35 146.18 623.74 181.09 623.74 181.09 698.74 185.46 698.74 185.46 731.18 191.83 731.18 191.83 740.65 200.73 740.65 200.73 618.15 239.92 618.15 239.92 723.94 244.28 723.94 244.28 701.88 260.73 701.88 260.73 757.27 263.45 757.27 263.45 726.01 268.44 726.01 268.44 715.34 274.91 715.34 274.91 691.32 282.55 691.32 282.55 652.29 295.64 652.29 295.64 639.24 302.63 639.24 302.63 619.95 314.19 619.95 314.19 599.01 321.98 599.01 321.98 570.05 352.98 570.05 352.98 693.85 361.1 693.85 361.1 680.43 367.71 680.43 367.71 663.33 401.38 663.33 401.38 711.3 416.9 711.3 416.9 694.85 432.11 694.85 432.11 610.02 456.19 610.02 456.19 688.55 464.35 688.55 464.35 719.27 471.83 719.27 471.83 736.9 473.46 736.9 473.46 680.48 479.66 680.48 479.66 644.16 489.83 644.16 489.83 669.46 494.61 669.46 494.61 675.09 505.09 675.09 505.09 720.66 505.33 720.66 505.33 710.52 510.01 710.52 510.01 696.28 518.83 687.51 525.96 694.6 530.25 694.6 530.25 688.55 535.64 688.55 535.64 684.14 542.93 684.14 544.17 674.36 546.29 674.15 548.73 681.39 548.73 717.43 549.72 717.43 549.72 662.05 571.76 662.05 571.76 719.27 576 719.27 576 699.54 582.46 699.54 582.46 680.48 594.55 680.48 594.55 700.04 609.82 700.04 609.82 716.25 614.18 716.25 614.18 666.45 623.53 666.45 623.53 648.39 631.77 648.39 631.77 624.11 643.64 624.11 643.64 665.3 651.22 665.3 651.22 724.02 663.28 724.02 663.28 695.76 682.34 695.76 688.79 691.51 694.38 697.07 694.38 704.77 698.18 704.77 698.18 732.51 700.37 732.51 700.37 702.16 704.73 702.16 704.73 680.48 723.63 680.48 723.63 729.8 727.15 729.8 727.15 701.07 747.23 701.07 747.23 634.51 750.84 634.51 750.84 618.49 762.93 609.73 771.35 618.11 771.35 634.88 774.55 634.88 774.55 704.77 779.45 704.77 779.45 732.51 785.46 732.51 785.46 687.69 804 687.69 804 802.97 0 802.97" fill="#d6477f"/>
        <polygon points="2.14 646.25 9.89 646.25 9.78 655.47 17.08 655.47 17.08 670.22 54.11 670.22 54.11 640.42 78.5 640.42 78.5 667.33 83.96 667.33 82.87 720.88 87.85 720.88 87.85 706.79 107.82 705.77 107.82 694.55 124.43 694.55 124.43 759 127.6 759 127.6 733.51 131.22 733.51 131.22 643.01 139.68 643.01 139.68 636.81 148.32 636.81 148.32 624.21 181.06 624.21 181.06 699.2 185.43 699.2 185.43 731.64 191.8 731.64 191.8 741.12 202.88 741.12 202.88 618.61 239.89 618.61 239.89 724.41 246.43 724.41 246.43 702.35 260.7 702.35 260.7 757.74 265.6 757.74 265.6 726.47 270.59 726.47 270.59 715.81 277.06 715.81 277.06 691.78 284.7 691.78 284.7 652.76 297.79 652.76 297.79 639.7 304.78 639.7 304.78 620.41 316.34 620.41 316.34 599.47 324.13 599.47 324.13 570.51 352.96 570.51 352.96 694.32 363.25 694.32 363.25 680.89 369.87 680.89 369.87 663.79 401.36 663.79 401.36 711.77 419.05 711.77 419.05 695.31 434.27 695.31 434.27 610.48 456.17 610.48 456.17 689.01 464.33 689.01 464.33 719.74 471.82 719.74 471.82 737.37 475.62 737.37 475.62 680.94 481.82 680.94 481.82 644.63 489.81 644.63 489.81 669.93 494.59 669.93 494.59 675.56 505.07 675.56 505.07 721.13 507.5 721.13 507.5 710.99 512.17 710.99 512.17 696.11 514.42 693.87 519.9 688.42 526.59 695.07 532.41 695.07 532.41 689.01 537.8 689.01 537.8 684.6 544.96 684.6 546.33 673.88 548.71 680.94 548.71 717.9 551.88 717.9 551.88 662.51 571.75 662.51 571.75 719.74 578.17 719.74 578.17 700 584.62 700 584.62 680.94 594.53 680.94 594.53 700.5 609.81 700.5 609.81 716.72 616.35 716.72 616.35 666.91 625.7 666.91 625.7 648.85 633.94 648.85 633.94 624.57 643.63 624.57 643.63 665.77 651.21 665.77 651.21 724.49 665.46 724.49 665.46 696.23 683.75 696.23 689.73 692.28 694.38 696.91 694.38 705.24 698.18 705.24 698.18 732.98 702.54 732.98 702.54 702.63 706.9 702.63 706.9 680.94 723.63 680.94 723.63 730.27 729.32 730.27 729.32 701.54 749.4 701.54 749.4 634.97 753.01 634.97 753.01 618.42 763.9 610.53 771.35 617.94 771.35 635.34 774.55 635.34 774.55 705.24 779.45 705.24 779.45 732.98 787.64 732.98 787.64 688.15 804 688.15 804 801.28 2.14 801.28 2.14 646.25" fill="#1a092b"/>
        <path d="M40.86,552.6c3.95-.17,2.39-1.26,2.73,1.98.16,1.54-.11,16.1-.49,16.85-2.06,4.08-9.95,4.68-10.82,5.54-2.25,2.24-2.56,56.78-1.76,60.04,2,8.1,12.46,6.54,13.06,7.07.29.26-.3,3,.02,3.24.47.35,8.13-1.53,10.89,2.18-.17,4.98-.2,10.2,0,15.18-8.62,3.06-9.84,4.37-19.97,4.3-2.02-.01-10.85.3-13.85.03-1.28-.11-2.78.63-3.29-.65-.57-1.42-.23-24.47-.06-28.13.09-2.01,2.12-.86,2.26-3.74.42-8.56-.5-62.05,0-61.84.58.24,9.27.7,9.21,0-.07-.94-.09-7.09.37-7.93.67-1.2,8.92-10.22,11.67-14.11Z" fill="#5a1c65"/>
        <path d="M91.59,671.56s1.06-10.06,1.1-11.93c.38-16.41-.65-32.98,0-49.38.08-2.08-1.12-4.35,2.18-3.74.3-9.65,7.68-18.68-9.82-15.18-.14.61.08,1.46,0,2.17-.3,2.56-.59,13.15-1.1,13.72-.21.23-4.08-.72-4.82-.17-.94.69.75,8.59.25,8.97-.75.57-2.39.25-4.15.25-.73,0-1.45,0-2.18,0-.17,9.28,1.97,19.35-3.27,27.1,2.43.22,5.35-.36,7.64,0,.65.1,1.96-.21,2.18,0s-.1,1.52,0,2.16c.85,5.62-1.41,19.39-.08,23.25l12.07,2.77Z" fill="#5a1c65"/>
        <path d="M199.47,579.71c-.27.58.89,5.62-.49,6.02-4.88,1.42-33.67-1.37-35.3-.04.3,10.91,3.68,36.1,0,45.52-1.06-.17-4.13.25-4.36,0-1.07-1.11,2.36-3.39-2.18-4.34-6.32-1.32-6.49,1.45-8.31,2.13-.46.17-2.31-1.31-2.59-1.06-.55.48-2.84,7.63-2.25,9.08s5.16.48,4.42,3.93c-1.93.34-4.86-.45-6.54,0-1.66-5.65,1.48-40.14-1.15-42.21-.32-.25-10.92.04-12.08.21v-3.21c1.55.14,10.74.27,12.06.12,1.05-.12-.06-13.87,1.54-15.46.77-.77,17.61-.19,21.14-.36,11.93-.57,24.17.06,36.11-.36Z" fill="#5a1c65"/>
        <path d="M255.24,514.67c6.67.67,6.13,6.17,7.24,6.57,4.26,1.55,8.97-2.96,11.31,2.1l1.09,28.19c.01.72-.01,1.45,0,2.17v1.08c.02,1.08-.01,2.17,0,3.25v1.08c.19,16.96-.09,33.99,0,50.95-1.76,1.12-1.07,3.68-1.09,5.42l-1.1,29.27c-.66.1-2.17-1.42-2.17-1.63v-58.54c0-5.68-11.52,2.22-13.13-2.37-2.99-8.55,3.16-54.42-.94-59.53-3.66-4.57-36.37,1.81-42.66-3.68,1.28-.88,2.95-2.22,4.36-3.25l37.09-1.08Z" fill="#1a092b"/>
        <path d="M243.68,505.32c-12.75-6.35-10.99,9.02-23.79,8.67,5.87-4.09,8.35-8.57,13.97-13.01.36-.01.73-.02,1.09,0,6.72.4,4.9,1.4,8.73,4.34Z" fill="#ca3c8e"/>
        <path d="M219.89,513.99c12.8.35,11.04-15.02,23.79-8.67,2.86,2.2,5.99,6.1,8.73,8.67l-34.11,1.32c.4-.29,1.18-1.03,1.59-1.32Z" fill="#5a1c65"/>
        <path d="M342.42,283.25c3.98-.93,1.52,4.82,2.2,8.16.44,2.16,2.14,2.51,2.16,2.68.22,1.73-.13,3.65,0,5.42-3.5,5.34-3.52,18.41,0,23.85.06.71-.07,1.46,0,2.17,1.12,10.9,3.07,4.32,6.55,6.52.29.18-.24,1.88,0,2.16-11.79-4.52-7.96,10.48-15.26,13.03l2.17,169.09c-3.35-.2-6.79.06-10.17-.02-.42,0-4.38-4.78-6.2.82-.36,1.12-.38,22.03,0,23.63.7,3.05,2.09,1.21,4.38,1.59-3.87,6.71-6.86-3.34-7.66-7.02l.02-160.48-3.28-.52v-2.17c.38-4.54.13-11.66.57-14.67.53-3.64,5.1-4.39,5.77-6.67.75-2.55-.37-10.41.26-11.13.31-.35,3.36.27,4.36-.52,1.94-1.54.47-5.1,1.15-5.97.38-.49,2.93.19,3.17-.06,2.56-1.36,4.92-1.64,7.64-2.17.33-.06,1.92,1.55,2.17,1.08,1.16-2.15,0-42.04.01-48.78Z" fill="#5a1c65"/>
        <path d="M445.02,417.27c10.58-.15,19.13,3.4,27.27,4.34.46,59.23-.61,118.56,0,177.79-2.66-1.48-7.24,2.38-8.16,2.18-1.13-.24-1.23-3.2-2.27-3.35-1.35-.18-3.59,2.41-5.24,2.11-1.96-.36-2.35-3.53-3.1-3.97-1.41-.81-3.84.34-5.06-.42-.34-.22-2.12-6.32-5.08-6.32h-16.36c-3.36,0-5.01-3.7-8.18-3.25-.05-7.7-.79-15.18-1.09-22.77.03-7.57-.04-15.19,0-22.77,2-2.42,1.08-6.75,1.09-9.76.03-5.05,0-10.13,0-15.18,0-4.88-1.17-35.42.05-36.81.31-.36,3.4.29,4.36-.52,1.09-.91.64-8.88,8.51-4.79,1.33.69-.2,5.18,3.43,4.17l-.93-50.15-.16-8.38c4.15-.41,8.75-2.14,10.91-2.17Z" fill="#1a092b"/>
        <path d="M500.82,521.45c.32,2-.3,4.48,0,6.5-.38,2.06-5.45,2.81-5.45,3.79v20.06c-1.6-7.82-1.64-16.99-1.09-24.93.05-.72-.06-1.45,0-2.17,1.62-2.56,3.36-3.84,6.55-3.25Z" fill="#1a092b"/>
        <path d="M683.99,491.8c5.13,3.39,10.35,3.59,16.37,3.25.11-1.05-.19-2.22,0-3.25.99.39.26,3.28,4.36,4.34.88.23,2.26-.15,3.27,0,.16,8.8-.43,17.74.02,26.53.11,2.13,2.93,3.39,2.98,4.49.77,18.99-2.26,38.77-.81,57.87-.94.33-.75.38-1.09,1.08-.12.24.07.7,0,1.08,1.6,11.26-.27,22.3,0,33.61-5.71,10.93-6.52-2.53-7.65-3.25-1.03-.66-4.27,2.14-6.03,2.12-6.32-.08-12.35-3.74-17.43,3.29-3.46.81-.5-11.87-6.54-6.49-3.53,3.14,1.67,6.01-7.08,2.17.15-39.93-.16-79.9.06-119.84.54-3.49-3.41-4.22-4.42-5.91,6.09-.37,12.5.51,18.55,0h4.36c.41-.17.94-.67,1.09-1.08Z" fill="#1a092b"/>
        <path d="M640.35,539.5c3.26,3.01-.35,8.73,2.49,11.64,4.24,4.35,17.51.79,18.24,1.37,6.46,5.15-18.83,3.52-19.64,4.32-1.39,1.38,1.87,34.18-1.08,39.03.22-18.77-.23-37.6,0-56.37Z" fill="#d6477f"/>
        <path d="M650.17,496.14c-1.27,1.61-3.74,11.18-4.45,11.84-.61.57-3.94-.27-4.28.08-.65.66,0,15.7,0,18.44v6.5h-1.09c.13-7.92-1.44-25.31.24-31.74,1.79-6.82,7.66-4.62,9.58-5.12Z" fill="#d6477f"/>
        <path d="M641.45,526.49c5.65,2.44,12.43,1.04,18.03,2.16,10.25,2.05-16.09,6.61-18.03,4.35v-6.5Z" fill="#ca3c8e"/>
        <path d="M663.26,535.17c4.21,3.37-17.98,4.92-19.64,4.32-5.73-4.38,18.41-5.31,19.64-4.32Z" fill="#ca3c8e"/>
        <polygon points="415.57 427.82 434.26 427.48 434.3 429.59 415.57 429.99 415.57 427.82" fill="#d6477f"/>
        <polygon points="434.33 431.28 415.57 431.52 415.57 433.52 434.3 433.52 434.33 431.28" fill="#d6477f"/>
        <path d="M434.3,435.21h-18.72v1.85h18.75s.05-1.93-.03-1.85Z" fill="#d6477f"/>
        <polygon points="318.37 356.07 338.15 353.9 338.15 356.07 317.86 358.62 318.37 356.07" fill="#d6477f"/>
        <polygon points="338.15 358.62 317.75 361.13 317.6 363.46 338.16 361.04 338.15 358.62" fill="#d6477f"/>
        <polygon points="320.59 435.77 339.18 434.08 339.18 436.86 320.59 438.18 320.59 435.77" fill="#d6477f"/>
      </g>
    </g>
  </g>
  <g id="Sun">
    <g>
      <rect x="136.53" y="38.62" width="2.42" height="155.66" transform="translate(-4.8 226.96) rotate(-78)" fill="#efa522"/>
      <rect x="136.53" y="38.62" width="2.42" height="155.66" transform="translate(-24.67 194.91) rotate(-66)" fill="#efa522"/>
      <rect x="136.53" y="38.62" width="2.42" height="155.66" transform="translate(-37.43 159.43) rotate(-54)" fill="#efa522"/>
      <rect x="136.53" y="38.62" width="2.42" height="155.66" transform="translate(-42.54 122.07) rotate(-42)" fill="#efa522"/>
      <rect x="136.53" y="38.62" width="2.42" height="155.66" transform="translate(-39.77 84.47) rotate(-30)" fill="#efa522"/>
      <rect x="136.53" y="38.62" width="2.42" height="155.66" transform="translate(-29.24 48.26) rotate(-18)" fill="#efa522"/>
      <rect x="136.53" y="38.62" width="2.42" height="155.66" transform="translate(-11.42 15.04) rotate(-6)" fill="#efa522"/>
      <rect x="59.91" y="115.24" width="155.66" height="2.42" transform="translate(7.53 241.26) rotate(-84)" fill="#efa522"/>
      <rect x="59.91" y="115.24" width="155.66" height="2.42" transform="translate(-15.57 211.46) rotate(-72)" fill="#efa522"/>
      <rect x="59.91" y="115.24" width="155.66" height="2.42" transform="translate(-31.98 177.51) rotate(-60)" fill="#efa522"/>
      <rect x="59.91" y="115.24" width="155.66" height="2.42" transform="translate(-40.96 140.89) rotate(-48)" fill="#efa522"/>
      <rect x="59.91" y="115.24" width="155.66" height="2.42" transform="translate(-42.14 103.2) rotate(-36)" fill="#efa522"/>
      <rect x="59.91" y="115.24" width="155.66" height="2.42" transform="translate(-35.46 66.09) rotate(-24)" fill="#efa522"/>
      <rect x="59.91" y="115.24" width="155.66" height="2.42" transform="translate(-21.2 31.18) rotate(-12)" fill="#efa522"/>
      <rect x="59.91" y="115.24" width="155.66" height="2.42" fill="#efa522"/>
    </g>
    <circle cx="137.74" cy="116.45" r="65.51" fill="#f28d20"/>
  </g>
  <g id="Moon">
    <circle cx="576.22" cy="223.01" r="75.8" fill="#757575"/>
    <circle cx="577.87" cy="224.89" r="75.8" fill="#ddd"/>
    <ellipse cx="592.55" cy="243.58" rx="14.04" ry="9.25" transform="translate(-10.26 460.52) rotate(-42.14)" fill="#757575"/>
    <ellipse cx="591.42" cy="241.58" rx="15.75" ry="10.22" transform="translate(-9.21 459.25) rotate(-42.14)" fill="#ddd"/>
    <ellipse cx="591.59" cy="240.05" rx="16.23" ry="10.22" transform="translate(14.16 512.39) rotate(-47.34)" fill="#757575"/>
    <ellipse cx="554.04" cy="248.21" rx="3.67" ry="1.76" fill="#757575"/>
    <ellipse cx="584.27" cy="285.89" rx="12.33" ry="4.81" transform="translate(-64.67 330.44) rotate(-30)" fill="#757575"/>
    <ellipse cx="535.63" cy="189.64" rx="5.93" ry="3.41" transform="translate(22.79 434.29) rotate(-45)" fill="#eaeaea"/>
    <path d="M506.22,241.58l6.22,16.13,11.56,17.33,15.56,13.11,9.33,4s-1.8-4.93,0-6.26,5.87-.64,7.31-.07,5.46,2.56,7.04,3.85,1.44,6.26.54,6.48-3.11,0-3.11,0l3.11,2.64h16.65l14.79-2.4,4.11-3.06,2.22.6,3.12-3.11,6.21-1.33,4-5.56,4.67-1.11,3.78-2.35h-3.11l3.11-3.88,6.22-1.78-2.67-4.63h5.56l2.89-9.37,2.67-8v9.33l3.78-4v-9.11l3.56-2.59,2-6.41,2-11.47v-7.97l-5.33-3.56,2.89,6.89-6.89,2.31-8.44,12.35-13.33,19.32-7.33,13.12-10.44,6.44-3.78,5.56-1.44,6-6.34,3.33-6.67.96-6,2.38-5.33-2.38-4.44-5.62,2.89-.89-5.33-2.89,3.11-1.56-5.33-.22-7.74.22-6.7-6.67-8.22-7.11-9.56-6-2.44,3.56-3.11-8.23-5.74-10.32-12.96-12.74.93,6.72Z" fill="#757575"/>
  </g>
  <g id="sunPath">
    <path d="M9.5,558.44C9.5,169.9,266.03,64.68,402,64.12c215.04-.89,390.15,291.75,390.15,494.32" fill="none"/>
  </g>
</svg>